<?xml version="1.0" encoding="utf-8"?>
<!-- Generated by IcoMoon.io -->
<!DOCTYPE svg PUBLIC "-//W3C//DTD SVG 1.1//EN" "http://www.w3.org/Graphics/SVG/1.1/DTD/svg11.dtd">
<svg version="1.1" xmlns="http://www.w3.org/2000/svg" xmlns:xlink="http://www.w3.org/1999/xlink" width="14" height="24" viewBox="0 0 14 24">
<path d="M2.4 9.6c1.325 0 2.4 1.075 2.4 2.4s-1.075 2.4-2.4 2.4c-1.325 0-2.4-1.075-2.4-2.4s1.075-2.4 2.4-2.4z"></path>
<path d="M12 9.6c1.325 0 2.4 1.075 2.4 2.4s-1.075 2.4-2.4 2.4c-1.325 0-2.4-1.075-2.4-2.4s1.075-2.4 2.4-2.4z"></path>
<path d="M2.4 0c1.325 0 2.4 1.075 2.4 2.4s-1.075 2.4-2.4 2.4c-1.325 0-2.4-1.075-2.4-2.4s1.075-2.4 2.4-2.4z"></path>
<path d="M12 0c1.325 0 2.4 1.075 2.4 2.4s-1.075 2.4-2.4 2.4c-1.325 0-2.4-1.075-2.4-2.4s1.075-2.4 2.4-2.4z"></path>
<path d="M2.4 19.2c1.325 0 2.4 1.075 2.4 2.4s-1.075 2.4-2.4 2.4c-1.325 0-2.4-1.075-2.4-2.4s1.075-2.4 2.4-2.4z"></path>
<path d="M12 19.2c1.325 0 2.4 1.075 2.4 2.4s-1.075 2.4-2.4 2.4c-1.325 0-2.4-1.075-2.4-2.4s1.075-2.4 2.4-2.4z"></path>
</svg>
