<?xml version="1.0" encoding="utf-8"?>
<!-- Generated by IcoMoon.io -->
<!DOCTYPE svg PUBLIC "-//W3C//DTD SVG 1.1//EN" "http://www.w3.org/Graphics/SVG/1.1/DTD/svg11.dtd">
<svg version="1.1" xmlns="http://www.w3.org/2000/svg" xmlns:xlink="http://www.w3.org/1999/xlink" width="19" height="32" viewBox="0 0 19 32">
<path fill="#b8b8b8" d="M3.2 12.8c1.767 0 3.2 1.433 3.2 3.2s-1.433 3.2-3.2 3.2c-1.767 0-3.2-1.433-3.2-3.2s1.433-3.2 3.2-3.2z"></path>
<path fill="#b8b8b8" d="M16 12.8c1.767 0 3.2 1.433 3.2 3.2s-1.433 3.2-3.2 3.2c-1.767 0-3.2-1.433-3.2-3.2s1.433-3.2 3.2-3.2z"></path>
<path fill="#b8b8b8" d="M3.2 0c1.767 0 3.2 1.433 3.2 3.2s-1.433 3.2-3.2 3.2c-1.767 0-3.2-1.433-3.2-3.2s1.433-3.2 3.2-3.2z"></path>
<path fill="#b8b8b8" d="M16 0c1.767 0 3.2 1.433 3.2 3.2s-1.433 3.2-3.2 3.2c-1.767 0-3.2-1.433-3.2-3.2s1.433-3.2 3.2-3.2z"></path>
<path fill="#b8b8b8" d="M3.2 25.6c1.767 0 3.2 1.433 3.2 3.2s-1.433 3.2-3.2 3.2c-1.767 0-3.2-1.433-3.2-3.2s1.433-3.2 3.2-3.2z"></path>
<path fill="#b8b8b8" d="M16 25.6c1.767 0 3.2 1.433 3.2 3.2s-1.433 3.2-3.2 3.2c-1.767 0-3.2-1.433-3.2-3.2s1.433-3.2 3.2-3.2z"></path>
</svg>
